<svg width="22" height="38" viewBox="0 0 22 38" fill="none" xmlns="http://www.w3.org/2000/svg">
<path d="M20.7575 36.1869C21.0588 35.8862 21.2978 35.5291 21.4609 35.1359C21.624 34.7428 21.708 34.3213 21.708 33.8956C21.708 33.47 21.624 33.0485 21.4609 32.6554C21.2978 32.2622 21.0588 31.9051 20.7575 31.6044L8.1475 18.9944L20.7575 6.38437C21.3652 5.77667 21.7066 4.95247 21.7066 4.09307C21.7066 3.23377 21.3652 2.40957 20.7575 1.80187C20.1499 1.19417 19.3257 0.852772 18.4663 0.852772C17.6069 0.852772 16.7827 1.19417 16.175 1.80187L1.2575 16.7194C0.956202 17.0201 0.717202 17.3772 0.554102 17.7704C0.391002 18.1635 0.3071 18.585 0.3071 19.0106C0.3071 19.4363 0.391002 19.8578 0.554102 20.2509C0.717202 20.6441 0.956202 21.0012 1.2575 21.3019L16.175 36.2194C17.41 37.4544 19.49 37.4544 20.7575 36.1869Z" fill="white"/>
</svg>
