<svg width="22" height="38" viewBox="0 0 22 38" fill="none" xmlns="http://www.w3.org/2000/svg">
<path d="M1.2576 1.8075C0.956301 2.1082 0.717299 2.4653 0.554199 2.8585C0.391099 3.2516 0.3071 3.6731 0.3071 4.0988C0.3071 4.5244 0.391099 4.9459 0.554199 5.339C0.717299 5.7322 0.956301 6.0893 1.2576 6.39L13.8676 19L1.2576 31.61C0.649901 32.2177 0.3085 33.0419 0.3085 33.9013C0.3085 34.7606 0.649901 35.5848 1.2576 36.1925C1.8652 36.8002 2.6894 37.1416 3.5488 37.1416C4.4082 37.1416 5.2324 36.8002 5.8401 36.1925L20.7576 21.275C21.0589 20.9743 21.2979 20.6172 21.461 20.224C21.6241 19.8309 21.708 19.4094 21.708 18.9838C21.708 18.5581 21.6241 18.1366 21.461 17.7435C21.2979 17.3503 21.0589 16.9932 20.7576 16.6925L5.8401 1.775C4.6051 0.54 2.5251 0.540001 1.2576 1.8075Z" fill="white"/>
</svg>
